<svg width="35" height="30" xmlns="http://www.w3.org/2000/svg">
 <!-- Generator: Sketch 41 (35326) - http://www.bohemiancoding.com/sketch -->

 <title>码云logo</title>
 <desc>Created with Sketch.</desc>
 <g>
  <title>background</title>
  <rect fill="none" id="canvas_background" height="32" width="37" y="-1" x="-1"/>
 </g>
 <g>
  <title>Layer 1</title>
  <g fill-rule="evenodd" fill="none" id="项目主页">
   <g stroke="null" id="切图-iconfont">
    <g stroke="null" id="码云logo">
     <polygon stroke="null" points="28.91103172302246,16.283337593078613 28.91103172302246,20.016674041748047 28.91103172302246,23.866680145263672 25.19906997680664,23.866680145263672 21.371109008789062,23.866680145263672 17.65914535522461,23.866680145263672 13.831186294555664,23.866680145263672 10.003226280212402,23.866680145263672 6.291262149810791,23.866680145263672 6.291262149810791,20.016674041748047 6.291262149810791,16.283337593078613 6.291262149810791,12.433331489562988 6.291262149810791,8.583325386047363 6.291262149810791,4.849987745285034 10.003226280212402,4.849987745285034 13.831186294555664,4.849987745285034 17.65914535522461,4.849987745285034 21.371109008789062,4.849987745285034 21.371109008789062,8.583325386047363 21.371109008789062,12.433331489562988 21.371109008789062,16.283337593078613 17.65914535522461,16.283337593078613 13.831186294555664,16.283337593078613 13.831186294555664,12.433331489562988 17.65914535522461,12.433331489562988 17.65914535522461,8.583325386047363 13.831186294555664,8.583325386047363 10.003226280212402,8.583325386047363 10.003226280212402,12.433331489562988 10.003226280212402,16.283337593078613 10.003226280212402,20.016674041748047 13.831186294555664,20.016674041748047 17.65914535522461,20.016674041748047 21.371109008789062,20.016674041748047 25.19906997680664,20.016674041748047 25.19906997680664,16.283337593078613 25.19906997680664,12.433331489562988 25.19906997680664,8.583325386047363 25.19906997680664,4.849987745285034 25.19906997680664,1.0000121593511722 21.371109008789062,1.0000121593511722 17.65914535522461,1.0000121593511722 13.831186294555664,1.0000121593511722 10.003226280212402,1.0000121593511722 6.291262149810791,1.0000121593511722 2.4633026123046875,1.0000121593511722 2.4633026123046875,4.849987745285034 2.4633026123046875,8.583325386047363 2.4633026123046875,12.433331489562988 2.4633026123046875,16.283337593078613 2.4633026123046875,20.016674041748047 2.4633026123046875,23.866680145263672 2.4633026123046875,27.716655731201172 6.291262149810791,27.716655731201172 10.003226280212402,27.716655731201172 13.831186294555664,27.716655731201172 17.65914535522461,27.716655731201172 21.371109008789062,27.716655731201172 25.19906997680664,27.716655731201172 28.91103172302246,27.716655731201172 32.73899269104004,27.716655731201172 32.73899269104004,23.866680145263672 32.73899269104004,20.016674041748047 32.73899269104004,16.283337593078613 " fill="#C71D24" id="XMLID_215_"/>
     <rect stroke="null" height="3.85" width="3.827961" y="1" x="28.911031" opacity="0.6" fill="#C71D24" id="XMLID_212_"/>
     <rect stroke="null" height="3.85" width="3.827961" y="9.166667" x="28.911031" opacity="0.8" fill="#C71D24" id="XMLID_209_"/>
     <g stroke="null" fill="#FFFFFF" id="logo_码云">
      <g stroke="null" id="Group-5">
       <polygon stroke="null" points="57.01416778564453,6.156292915344238 67.25090026855469,6.156292915344238 67.25090026855469,3.666149854660034 57.01416778564453,3.666149854660034 " id="Fill-4"/>
       <polygon stroke="null" points="57.03862380981445,15.594159126281738 68.49185180664062,15.594159126281738 68.49185180664062,13.020794868469238 57.03862380981445,13.020794868469238 " id="Fill-5"/>
       <polygon stroke="null" points="57.262176513671875,20.758342742919922 64.03406524658203,20.758342742919922 64.03406524658203,18.184978485107422 57.262176513671875,18.184978485107422 " id="Fill-6"/>
       <polygon stroke="null" points="61.73854446411133,25.315593719482422 68.49185180664062,25.315593719482422 68.49185180664062,22.742321014404297 61.73854446411133,22.742321014404297 " id="Fill-7"/>
       <polygon stroke="null" points="64.76900100708008,11.375012397766113 67.25090026855469,11.375012397766113 67.25090026855469,3.666241407394409 64.76900100708008,3.666241407394409 " id="Fill-8"/>
       <polygon stroke="null" points="57.01416778564453,14.340802192687988 59.49614715576172,14.340802192687988 59.49614715576172,4.921063184738159 57.01416778564453,4.921063184738159 " id="Fill-9"/>
       <polygon stroke="null" points="66.00994873046875,25.315593719482422 68.49185180664062,25.315593719482422 68.49185180664062,15.007855415344238 66.00994873046875,15.007855415344238 " id="Fill-10"/>
       <polygon stroke="null" points="46.00871658325195,15.574475288391113 55.86054229736328,15.574475288391113 55.86054229736328,13.107159614562988 46.00871658325195,13.107159614562988 " id="Fill-11"/>
       <polygon stroke="null" points="46.00871658325195,6.156292915344238 55.86054229736328,6.156292915344238 55.86054229736328,3.666149854660034 46.00871658325195,3.666149854660034 " id="Fill-12"/>
       <polygon stroke="null" points="48.317955017089844,14.137616157531738 46.00310516357422,13.236737251281738 49.47669982910156,4.199810743331909 51.79155349731445,5.100750923156738 " id="Fill-13"/>
       <polygon stroke="null" points="53.37864303588867,25.220989227294922 55.86054229736328,25.220989227294922 55.86054229736328,15.200055122375488 53.37864303588867,15.200055122375488 " id="Fill-14"/>
       <polygon stroke="null" points="46.003177642822266,24.721538543701172 48.485076904296875,24.721538543701172 48.485076904296875,14.700604438781738 46.003177642822266,14.700604438781738 " id="Fill-15"/>
       <polygon stroke="null" points="46.00309753417969,25.280010223388672 54.84604263305664,25.280010223388672 54.84604263305664,22.777965545654297 46.00309753417969,22.777965545654297 " id="Fill-16"/>
       <polygon stroke="null" points="74.35069274902344,6.117627143859863 91.93296813964844,6.117627143859863 91.93296813964844,3.627484083175659 74.35069274902344,3.627484083175659 " id="Fill-17"/>
       <polygon stroke="null" points="73.59294128417969,13.567212104797363 92.95358276367188,13.567212104797363 92.95358276367188,11.077069282531738 73.59294128417969,11.077069282531738 " id="Fill-18"/>
       <polygon stroke="null" points="90.15573120117188,25.737834930419922 74.35072326660156,25.773754119873047 74.35072326660156,23.200481414794922 90.15573120117188,23.238780975341797 " id="Fill-19"/>
       <polygon stroke="null" points="76.67513275146484,24.088726043701172 74.3507080078125,23.213359832763672 78.37574768066406,12.392132759094238 80.70027160644531,13.267651557922363 " id="Fill-20"/>
       <path stroke="null" id="Fill-21" d="m94.536701,21.15085c0,-2.52722 -2.043218,-4.58318 -4.554772,-4.58318c-1.537698,0 -2.937345,0.76171 -3.777613,2.02146c-0.105087,0.16775 -0.199438,0.34274 -0.282464,0.5243c-0.265023,0.57958 -0.41389,1.22408 -0.41389,1.90391c0,0.06726 0.002143,0.13409 0.004952,0.20068c0.383333,-0.62846 0.913957,-1.15592 1.543072,-1.53466c0.679412,-0.40908 1.473748,-0.64458 2.323108,-0.64458c0.164653,0 0.327154,0.00956 0.487344,0.02685l0.314097,0.04514c0.300796,0.05403 0.591355,0.13799 0.868446,0.24855c0.604157,0.36577 1.009296,1.03181 1.009296,1.79153c0,1.15201 -0.931398,2.0893 -2.076348,2.0893c-0.038171,0 -0.076087,-0.001 -0.113759,-0.00308l-0.133588,2.49031c0.081627,0.00433 0.164898,0.00665 0.247347,0.00665c1.699621,0 3.184037,-0.94219 3.966481,-2.33436l0.000577,0l-0.000088,-0.001c0.187615,-0.33409 0.335336,-0.69388 0.435383,-1.07303c0.099048,-0.37517 0.152419,-0.7687 0.152419,-1.17479"/>
      </g>
     </g>
    </g>
   </g>
  </g>
  <path id="svg_1" d="m-191.957483,-3.996137c61.987413,76.984368 39.99188,87.982135 40.988136,87.979085" opacity="0.5" stroke-width="1.5" stroke="#000" fill="#fff"/>
 </g>
</svg>